Coordinates
version=1
nRows=23
nColumns=30
inDegrees=yes

Units are S.I. units (second, meters, Newtons, ...)
Angles are in degrees.

endheader
time	floatyaw	floatroll	floatpitch	floatx	floaty	floatz	pro_sup_l	deviation_l	flexion_l	cmc_flexion_l	cmc_abduction_l	mp_flexion_l	ip_flexion_l	2mcp_flexion_l	2mcp_abduction_l	2pm_flexion_l	2md_flexion_l	3mcp_flexion_l	3mcp_abduction_l	3pm_flexion_l	3md_flexion_l	4mcp_flexion_l	4mcp_abduction_l	4pm_flexion_l	4md_flexion_l	5mcp_flexion_l	5mcp_abduction_l	5pm_flexion_l	5md_flexion_l
0.005000	-3.046650	-4.537392	92.867313	0.162829	-0.264976	0.170009	116.458286	21.586333	21.106465	0.030609	40.151564	-15.195601	-26.603489	45.144767	9.651067	40.752096	37.911083	39.804308	5.556668	45.238357	45.014844	41.108568	-4.921504	64.405358	50.948446	26.232605	-11.620659	61.178209	50.722467
0.015000	-3.046650	-4.537392	92.867313	0.162081	-0.264043	0.169252	115.960753	21.219355	20.667277	1.048791	40.572647	-15.266282	-29.672546	45.026426	9.571780	40.895139	39.196895	39.408475	5.478649	45.761911	46.344759	40.408981	-5.002229	65.226889	52.275907	25.801828	-11.600980	61.272755	51.456436
0.025000	-3.046650	-4.537392	92.867313	0.161255	-0.263137	0.168466	115.516075	20.876100	20.192905	2.024696	40.956585	-15.230902	-32.816271	44.818469	9.507110	41.085372	40.530829	38.972153	5.417047	46.285812	47.688141	39.715103	-5.077885	66.060818	53.579423	25.380291	-11.584391	61.413554	52.187761
0.035000	-3.046650	-4.537392	92.867313	0.160385	-0.262299	0.167644	115.125458	20.551423	19.718589	2.908337	41.273979	-15.102374	-35.847145	44.543391	9.464993	41.316217	41.834747	38.523259	5.374854	46.791798	48.965100	39.059678	-5.148390	66.871787	54.798888	24.987955	-11.568083	61.587186	52.858708
0.045000	-3.046650	-4.537392	92.867313	0.159513	-0.261569	0.166782	114.782902	20.240565	19.281852	3.658615	41.515989	-14.903820	-38.573672	44.230342	9.450350	41.570292	43.028359	38.089556	5.353561	47.258063	50.101329	38.468306	-5.214061	67.620082	55.881805	24.640457	-11.553477	61.767370	53.422202
0.055000	-3.046650	-4.537392	92.867313	0.158672	-0.260983	0.165896	114.480226	19.942975	18.912417	4.248660	41.690588	-14.664081	-40.835366	43.909034	9.463571	41.823734	44.044750	37.695169	5.352758	47.662707	51.040274	37.959339	-5.274750	68.268619	56.789952	24.351156	-11.545265	61.921075	53.850127
0.065000	-3.046650	-4.537392	92.867313	0.157885	-0.260569	0.165018	114.211969	19.663764	18.623182	4.671293	41.814803	-14.411356	-42.541184	43.604762	9.499800	42.052144	44.845425	37.357723	5.369635	47.988854	51.755311	37.542682	-5.329399	68.790778	57.507097	24.130135	-11.547964	62.017404	54.139577
0.075000	-3.046650	-4.537392	92.867313	0.157161	-0.260331	0.164201	113.979443	19.412789	18.406305	4.941017	41.906895	-14.167379	-43.693180	43.337180	9.549628	42.235776	45.427826	37.087845	5.398872	48.228681	52.256048	37.218873	-5.376296	69.176858	58.043972	23.981314	-11.562007	62.038226	54.313228
0.085000	-3.046650	-4.537392	92.867313	0.156504	-0.260249	0.163504	113.791830	19.201807	18.237444	5.089929	41.981183	-13.944793	-44.379937	43.121870	9.601271	42.363129	45.820059	36.890448	5.433301	48.384943	52.582915	36.980134	-5.413833	69.436306	58.434942	23.900375	-11.581948	61.986355	54.410255
0.095000	-3.046650	-4.537392	92.867313	0.155921	-0.260281	0.162979	113.662085	19.040444	18.087317	5.158306	42.046225	-13.748442	-44.740419	42.971160	9.643635	42.433161	46.065112	36.765460	5.465407	48.470553	52.790629	36.813545	-5.441248	69.594310	58.725145	23.875340	-11.598242	61.886291	54.469962
0.105000	-3.046650	-4.537392	92.867313	0.155423	-0.260371	0.162650	113.598261	18.932210	17.935262	5.183734	42.105488	-13.578965	-44.915610	42.891649	9.669138	42.455994	46.203806	36.706549	5.489197	48.507086	52.928548	36.704614	-5.458852	69.684031	58.953992	23.889351	-11.601699	61.776060	54.516428
0.115000	-3.046650	-4.537392	92.867313	0.155030	-0.260471	0.162505	113.595171	18.872259	17.777776	5.193238	42.159056	-13.436219	-45.010325	42.879508	9.675250	42.451044	46.265849	36.699177	5.501654	48.521754	53.027774	36.639095	-5.467714	69.737600	59.144119	23.923783	-11.587863	61.693521	54.552859
0.125000	-3.046650	-4.537392	92.867313	0.154755	-0.260548	0.162495	113.632437	18.848073	17.627741	5.200773	42.205239	-13.320968	-45.078909	42.917803	9.664296	42.441428	46.271683	36.721072	5.503124	48.541604	53.100204	36.602553	-5.469258	69.778879	59.301403	23.960494	-11.558658	61.662611	54.568328
0.135000	-3.046650	-4.537392	92.867313	0.154596	-0.260592	0.162556	113.681163	18.842794	17.505383	5.209510	42.241830	-13.234660	-45.134412	42.979667	9.641853	42.445418	46.240197	36.747098	5.496527	48.585194	53.147410	36.579388	-5.465200	69.819527	59.424293	23.983555	-11.520662	61.684165	54.552021
0.145000	-3.046650	-4.537392	92.867313	0.154535	-0.260608	0.162631	113.715423	18.839642	17.426431	5.216592	42.267330	-13.177923	-45.170330	43.037137	9.614565	42.468861	46.194152	36.757150	5.485857	48.655224	53.172048	36.553601	-5.457764	69.858965	59.514956	23.981386	-11.481497	61.734701	54.505793
0.155000	-3.046650	-4.537392	92.867313	0.154535	-0.260609	0.162687	113.721773	18.825760	17.393914	5.217912	42.282208	-13.148881	-45.181243	43.070907	9.588240	42.504086	46.157840	36.742706	5.474646	48.737523	53.183854	36.511931	-5.449722	69.888398	59.584355	23.949275	-11.446582	61.774790	54.447114
0.165000	-3.046650	-4.537392	92.867313	0.154556	-0.260609	0.162718	113.701753	18.794528	17.397303	5.211311	42.289570	-13.142413	-45.172672	43.075228	9.566726	42.537594	46.147745	36.707849	5.464993	48.809258	53.196477	36.447596	-5.443945	69.897915	59.648173	23.890821	-11.417774	61.765017	54.400709
0.175000	-3.046650	-4.537392	92.867313	0.154566	-0.260620	0.162738	113.667042	18.746078	17.418411	5.197500	42.294522	-13.150937	-45.158242	43.055797	9.551609	42.561860	46.162997	36.664128	5.457432	48.852706	53.218396	36.362134	-5.442569	69.883617	59.717402	23.816716	-11.394023	61.682881	54.384834
0.185000	-3.046650	-4.537392	92.867313	0.154548	-0.260642	0.162762	113.630981	18.686019	17.439895	5.178914	42.302286	-13.166062	-45.149878	43.023460	9.542461	42.582072	46.184000	36.622961	5.451476	48.865721	53.246132	36.264243	-5.446245	69.850738	59.791425	23.740798	-11.373111	61.532198	54.401714
0.195000	-3.046650	-4.537392	92.867313	0.154504	-0.260669	0.162796	113.601462	18.622706	17.451567	5.157522	42.316134	-13.179864	-45.150019	42.988567	9.537429	42.612029	46.182742	36.590589	5.446436	48.861573	53.266417	36.166476	-5.453910	69.810787	59.859409	23.675289	-11.353233	61.340133	54.438324
0.205000	-3.046650	-4.537392	92.867313	0.154449	-0.260694	0.162834	113.578492	18.563966	17.451906	5.133172	42.336316	-13.185236	-45.151518	42.958752	9.534020	42.662287	46.139689	36.567995	5.442022	48.858662	53.266523	36.081460	-5.463236	69.774824	59.909174	23.627712	-11.333694	61.143924	54.476006
0.215000	-3.046650	-4.537392	92.867313	0.154398	-0.260708	0.162863	113.556496	18.514567	17.445321	5.103763	42.360574	-13.176200	-45.144003	42.939420	9.529969	42.730068	46.056470	36.554147	5.438440	48.868120	53.244738	36.018804	-5.471547	69.747700	59.936796	23.600597	-11.314750	60.974951	54.501685
0.225000	-3.046650	-4.537392	92.867313	0.154360	-0.260708	0.162870	113.528870	18.475415	17.437747	5.067259	42.385807	-13.149365	-45.120685	42.934425	9.523945	42.798938	45.955669	36.548913	5.436069	48.888264	53.212520	35.982988	-5.476787	69.727271	59.949693	23.593008	-11.297077	60.848479	54.513428
